<svg width="278" height="278" viewBox="0 0 278 278" fill="none" xmlns="http://www.w3.org/2000/svg">
<path d="M139 278C215.768 278 278 215.768 278 139C278 62.2324 215.768 0 139 0C62.2324 0 0 62.2324 0 139C0 215.768 62.2324 278 139 278Z" fill="#265DF5"/>
<path d="M180.8 190.49L180.49 204.58L179.59 245.26V246.83C110.85 187.34 99.14 172.83 97.11 168.42L97.04 168.27C96.7956 167.44 96.7376 166.565 96.87 165.71C96.9185 165.393 96.9853 165.079 97.07 164.77C97.14 164.52 97.21 164.28 97.3 164.02C98.0409 162.074 99.0911 160.261 100.41 158.65C101.355 157.429 102.384 156.277 103.49 155.2C105.855 152.861 108.389 150.699 111.07 148.73C112.4 147.73 113.79 146.73 115.26 145.73C118.1 143.79 121.17 141.85 124.35 139.96C149.05 163 180.4 190.12 180.8 190.49Z" fill="url(#paint0_linear_9_3166)"/>
<path d="M181.71 56.86L181.4 71L181.24 78L180.92 92.07L180.76 99.13L180.45 113.21C179.96 113.41 148.61 125.57 124.45 139.94C121.27 141.83 118.21 143.77 115.36 145.71C113.9 146.71 112.5 147.71 111.17 148.71C108.493 150.684 105.96 152.846 103.59 155.18C102.487 156.259 101.458 157.412 100.51 158.63C98.3301 161.41 97.0201 164.14 96.8301 166.71L97.09 154.96V154.88L97.1401 153.06V152.4L97.35 144.99L97.7501 130.3L97.9401 123.12L98.34 108.56C103.31 88.18 173.5 60.09 181.71 56.86Z" fill="white"/>
<path d="M117 72.44C128.394 72.44 137.63 63.2036 137.63 51.81C137.63 40.4164 128.394 31.18 117 31.18C105.606 31.18 96.3701 40.4164 96.3701 51.81C96.3701 63.2036 105.606 72.44 117 72.44Z" fill="white"/>
<defs>
<linearGradient id="paint0_linear_9_3166" x1="166.59" y1="211.83" x2="85.0601" y2="117.78" gradientUnits="userSpaceOnUse">
<stop stop-color="white"/>
<stop offset="1" stop-color="#265DF5"/>
</linearGradient>
</defs>
</svg>
